<svg xmlns="http://www.w3.org/2000/svg" viewBox="0 0 100 100" fill="none">
  <!-- Coffee cup body -->
  <path d="M30 25H70V75C70 82.5 62.5 90 55 90H45C37.5 90 30 82.5 30 75V25Z" fill="#4a3a2f" />
  
  <!-- Cup handle -->
  <path d="M70 35H85C85 35 90 40 90 50C90 60 85 65 85 65H70" stroke="#4a3a2f" stroke-width="6" stroke-linecap="round" />
  
  <!-- Steam -->
  <path d="M40 15C40 15 35 5 45 5C55 5 50 15 50 15" stroke="#10B981" stroke-width="3" stroke-linecap="round" />
  <path d="M55 15C55 15 50 5 60 5C70 5 65 15 65 15" stroke="#10B981" stroke-width="3" stroke-linecap="round" />
  
  <!-- Chain link -->
  <circle cx="50" cy="50" r="10" stroke="#F59E0B" stroke-width="4" fill="none" />
  <circle cx="65" cy="50" r="10" stroke="#F59E0B" stroke-width="4" fill="none" />
</svg>